<?xml version="1.0" standalone="no"?><!DOCTYPE svg PUBLIC "-//W3C//DTD SVG 1.1//EN" "http://www.w3.org/Graphics/SVG/1.1/DTD/svg11.dtd"><svg t="1539052787004" class="icon" style="" viewBox="0 0 1170 1024" version="1.1" xmlns="http://www.w3.org/2000/svg" p-id="4264" xmlns:xlink="http://www.w3.org/1999/xlink" width="18.28125" height="16"><defs><style type="text/css"></style></defs><path d="M239.452829 528.491404v123.821747h115.557212c41.322674 0 74.380813 33.058139 74.380814 74.307676v222.996165c0 41.249537-41.322674 74.307676-74.307676 74.307676H74.308407A74.015126 74.015126 0 0 1 0.000731 949.616992V726.620827C0.000731 685.371291 33.058871 652.386289 74.308407 652.386289h115.557213V479.05047h338.626515V371.53838h-115.557212a74.015126 74.015126 0 0 1-74.380814-74.307676V74.307676C338.554109 33.058139 371.612249 0 412.861785 0h280.774772c41.249537 0 74.307676 33.058139 74.307676 74.307676v222.996165c0 41.249537-33.058139 74.307676-74.307676 74.307676h-115.557213v107.292678h338.480241v49.587209H239.452829z m635.857219 115.557212v-115.557212h41.249537v115.557212h115.557212c41.322674 0 74.380813 33.058139 74.380814 74.380814v222.923028c0 41.249537-33.058139 82.572211-74.307676 82.57221h-280.774772a74.015126 74.015126 0 0 1-74.307676-74.307676V718.42943c0-41.322674 33.058139-74.380813 74.307676-74.380814h123.894885z" p-id="4265"></path></svg>