<?xml version="1.0" standalone="no"?><!DOCTYPE svg PUBLIC "-//W3C//DTD SVG 1.1//EN" "http://www.w3.org/Graphics/SVG/1.1/DTD/svg11.dtd"><svg t="1539053314796" class="icon" style="" viewBox="0 0 1024 1024" version="1.1" xmlns="http://www.w3.org/2000/svg" p-id="5136" xmlns:xlink="http://www.w3.org/1999/xlink" width="16" height="16"><defs><style type="text/css"></style></defs><path d="M580.36224 561.11104s47.55456-12.32896 79.91296-50.9952c20.84864-24.94464 34.28352-42.76224 40.05888-64.1024 5.81632-21.34016 14.49984-48.08704 14.49984-74.42432 0-18.14528-2.58048-35.67616-7.168-52.38784-108.29824-1.67936-251.04384 94.16704-319.11936-72.9088-46.98112-3.11296-56.03328 84.86912-80.4864 148.93056 11.8784 100.1472 98.01728 177.93024 202.58816 177.93024 24.576 0 47.9232-4.46464 69.67296-12.36992 17.6128 2.33472 91.29984 7.5776 109.7728 7.9872a269.43488 269.43488 0 0 1-179.44576 68.32128c-120.34048 0-222.12608-78.15168-256.45056-185.79456-18.92352-16.384-51.2-71.8848-51.2-149.2992 0-58.08128 26.78784-100.06528 52.34688-125.37856 12.86144 31.1296 37.64224 64.88064 86.46656 70.36928-29.40928-27.2384-42.43456-66.23232-47.84128-102.89152 34.36544-82.78016 178.42176-78.80704 187.31008-78.80704 155.36128 0 299.45856 26.37824 294.17472 261.57056 2.49856 14.5408 4.13696 29.53216 4.13696 44.76928 0 26.09152-7.00416 56.48384-11.10016 75.07968-4.13696 18.55488-16.50688 37.4784-41.61536 79.95392-11.6736 19.74272-36.70016 42.14784-36.70016 42.14784l-109.81376-7.70048z m-268.73856 111.77984H362.9056c66.3552 0 76.43136 285.85984 76.43136 285.85984H146.2272l93.02016-214.4256c0.04096-0.04096 32.44032-71.43424 72.37632-71.43424z m253.29664 71.39328h-90.43968l-22.60992-71.39328h135.70048l-22.65088 71.39328z m-18.8416 16.42496l36.29056 130.94912-31.70304 65.61792h-56.48384l-33.25952-62.58688 36.2496-133.28384 48.90624-0.69632z m125.82912-87.81824h55.82848c40.05888 0 72.45824 71.39328 72.45824 71.39328l77.57824 214.4256h-277.01248s15.5648-285.81888 71.14752-285.81888z" fill="#515151" p-id="5137"></path></svg>